HIERARCHY
ROOT Spine
{
    OFFSET 0.0 0.0 -0.0
    CHANNELS 6 Xposition Yposition Zposition Zrotation Xrotation Yrotation
    JOINT ShoulderCenter
    {
        OFFSET 0.0 28.292375564575195 0.0
        CHANNELS 3 Zrotation Xrotation Yrotation
        JOINT LeftShoulder
        {
            OFFSET 18.461917877197266 0.0 0.0
            CHANNELS 3 Zrotation Xrotation Yrotation
            JOINT LeftElbow
            {
                OFFSET 29.939178466796875 0.0 0.0
                CHANNELS 3 Zrotation Xrotation Yrotation
                JOINT LeftHand
                {
                    OFFSET 31.770957946777344 0.0 0.0
                    CHANNELS 3 Zrotation Xrotation Yrotation
                    End Site
                    {
                        OFFSET 12.708383560180664 0.0 0.0
                    }
                }
            }
        }
        JOINT RightShoulder
        {
            OFFSET -18.461917877197266 0.0 0.0
            CHANNELS 3 Zrotation Xrotation Yrotation
            JOINT RightElbow
            {
                OFFSET -29.939178466796875 0.0 0.0
                CHANNELS 3 Zrotation Xrotation Yrotation
                JOINT RightHand
                {
                    OFFSET -31.770957946777344 0.0 0.0
                    CHANNELS 3 Zrotation Xrotation Yrotation
                    End Site
                    {
                        OFFSET -12.708383560180664 0.0 0.0
                    }
                }
            }
        }
        End Site
        {
            OFFSET 0.0 11.316949844360352 0.0
        }
    }
    JOINT LeftHip
    {
        OFFSET 15.729678606367278 -15.729678606367278 0.0
        CHANNELS 3 Zrotation Xrotation Yrotation
        JOINT LeftKnee
        {
            OFFSET 0.0 -39.31306457519531 0.0
            CHANNELS 3 Zrotation Xrotation Yrotation
            JOINT LeftFoot
            {
                OFFSET 0.0 -43.867122650146484 0.0
                CHANNELS 3 Zrotation Xrotation Yrotation
                End Site
                {
                    OFFSET 0.0 0.0 17.54684829711914
                }
            }
        }
    }
    JOINT RightHip
    {
        OFFSET -15.729678606367278 -15.729678606367278 0.0
        CHANNELS 3 Zrotation Xrotation Yrotation
        JOINT RightKnee
        {
            OFFSET 0.0 -39.31306457519531 0.0
            CHANNELS 3 Zrotation Xrotation Yrotation
            JOINT RightFoot
            {
                OFFSET 0.0 -43.867122650146484 0.0
                CHANNELS 3 Zrotation Xrotation Yrotation
                End Site
                {
                    OFFSET 0.0 0.0 17.54684829711914
                }
            }
        }
    }
}
MOTION
Frames: 10
Frame Time: 0.03333333333333333
-1.2000000476837158 8.699999809265137 45.69999694824219 2.6124442539614448 20.608003435945935 -5.328496393238238 -6.020467592350564e-08 -1.0708361839816513e-06 0.007774121937669661 128.27299255815038 -20.87812184202307 -159.38323535846814 -1.2880595431967303e-06 1.3784061974962e-06 102.65373078480332 -3.1805546814635168e-15 6.3611093629270335e-15 1.7655625192200634e-31 -152.88314513472866 -25.883627853118995 141.49531085494175 -1.808959968641456e-06 4.7959193002069634e-06 -99.38993950157287 0.0 -6.3611093629270335e-15 0.0 1.2318806074552862 -11.191517368329176 -6.836142055548411 1.6091774233224239 -16.432026229213253 42.141287800634395 3.975693351829395e-16 7.95138670365879e-16 -1.229980130722219e-15 -3.475587780899748 -20.65902816198962 -8.284807544117841 -1.09848873529892 -7.919191412296585 -12.91178751235155 1.7241821476758432e-34 -9.93923337957349e-17 1.987846675914698e-16
-1.3000000715255737 8.699999809265137 45.79999923706055 2.36802542888905 19.638319980214952 -4.8186132680596705 -5.223881106002604e-08 7.25423680809069e-08 -0.1654333268348464 131.57985483503032 -20.248125199024336 -157.45600870507238 4.813651611554802e-06 2.2536217812183973e-06 106.65023863524713 3.1805546814635168e-15 0.0 0.0 -155.29229831832808 -24.758244988228853 142.11014434434648 2.942181363462504e-06 -2.7306737255654706e-06 -105.38678912742363 1.5902773407317584e-15 0.0 0.0 1.260374789846188 -9.712299278371093 -10.894215052696776 2.3961396077965316 -16.445768769777136 42.72005673633196 3.0173187584327256e-34 4.969616689786745e-17 -6.957463365701443e-16 -3.4927559789419362 -19.231809462176898 -6.149013308563812 -1.424239856856027 -8.026889208413186 -13.556105792582704 7.951386703658794e-16 -9.939233379573492e-17 -3.4787316828507225e-16
-1.3000000715255737 8.90000057220459 45.79999923706055 1.9233891571141382 18.74520989459565 -3.7201774309771096 -1.0244749834607552e-07 8.975961077477522e-07 -0.8736105274362708 136.81940025210793 -15.988894658007778 -153.84350045454957 1.2710904182022238e-06 -3.15121497540216e-06 109.9077397084962 3.1805546814635168e-15 0.0 0.0 -158.91379266932452 -20.712554771907655 141.8705895862269 8.508886912913588e-08 -1.687990501190228e-06 -111.48401601168497 -1.5902773407317584e-15 0.0 0.0 1.3046155358499527 -8.999540601344881 -12.879073435544864 3.105306538679022 -16.304658941592756 43.42931331468656 -2.2500577027169754e-32 -7.95138670365879e-16 -3.2426748900858504e-15 -3.462510083789917 -17.83661796544854 -3.9060485962124782 -1.845923421596249 -8.083924977243266 -14.064370451467965 -7.951386703658791e-16 -1.0345092886055059e-32 1.4908850069360234e-15
-1.3000000715255737 9.0 45.69999694824219 1.6908969581898172 17.791102489057177 -2.952931548824518 -2.3121118707081717e-09 8.934419965693709e-08 -1.4058091880594952 142.68842072069407 -9.493378512802071 -149.88111495282638 4.7251871112180724e-07 9.529793193257606e-08 112.56866057543907 -3.1805546814635168e-15 0.0 0.0 -163.08005032482185 -14.052327393333151 141.16301531237912 -2.540460676495445e-07 1.443233092721874e-06 -115.84512148197311 0.0 6.3611093629270335e-15 0.0 1.2079722593178792 -8.058117839992699 -16.5497938794388 4.141362683692665 -15.835407593380545 44.03646695786288 -9.939233379573489e-17 6.573444438014152e-34 -7.578665451924785e-16 -3.359427019321848 -16.548215506981766 -0.9858683238320458 -2.374091481004361 -7.87195130606954 -13.865404867414748 7.951386703658792e-16 9.93923337957349e-17 6.957463365701443e-16
-1.4000000953674316 9.09999942779541 45.69999694824219 1.0416264861655942 16.601032520308486 -2.299405283444065 -9.362953764916465e-08 1.34518243647656e-06 -1.22720265693341 149.22807306154883 -1.5422418412350385 -146.30517577531344 1.9028447942368544e-06 -1.8905879423900591e-06 114.6518910972209 -3.1805546814635168e-15 0.0 0.0 -166.3536211652454 -5.991228696025122 142.17139870906973 -2.4026461866992673e-06 -3.196307765921668e-07 -118.9530520915276 0.0 3.1805546814635168e-15 0.0 1.5548685426908022 -6.859163398065718 -19.374285888350684 5.140313165601452 -15.433305001255368 43.77805920249823 2.1742073017817009e-16 2.6541502652912868e-33 1.3988694479141907e-15 -2.9137533331476733 -15.02928201091999 1.5828685112640135 -2.78325342985226 -7.63731137079209 -13.818798178970042 -6.896728590703373e-33 7.951386703658792e-16 9.93923337957349e-16
-1.4000000953674316 9.300000190734863 45.599998474121094 0.6227556349648344 15.971926609057723 -2.0080785421586995 -5.3102542083270014e-09 8.305890006437575e-07 -1.0191945635228832 155.57166909175268 7.705154389927341 -143.95194598716773 -2.329260485356816e-06 1.1058272227204383e-06 116.66684304801198 0.0 0.0 6.3611093629270335e-15 -169.94951782707076 3.10605296941369 143.6897646764683 1.271055610444755e-06 -2.212749263688751e-06 -120.77323783478361 0.0 0.0 0.0 2.051065781076237 -5.914411265292107 -24.70414844030234 6.513560233601499 -15.208710931031034 45.36817366184267 -4.969616689786746e-17 -3.97370104347167e-35 9.162730771794313e-17 -2.429512168441878 -14.374760087806829 4.514799636306339 -3.3077884121022225 -6.9777290888138825 -12.87438154888336 5.49583059571675e-33 -8.448348372637465e-16 7.454425034680117e-16
-1.5 9.399999618530273 45.69999694824219 -9.867878088586241e-09 14.95717505346656 -1.9758117137338926 5.13531785145161e-08 -1.872842007210574e-06 -0.11630366321879036 162.4916932434096 17.085356853526953 -142.88218829350248 1.0971290443278055e-06 4.94011016362713e-07 117.92232211826912 0.0 0.0 3.1805546814635168e-15 -174.91974200009224 12.196312303220246 147.05250146202638 -4.946557680752291e-07 -6.411785823033016e-08 -120.9738175914125 7.951386703658792e-16 4.4139062980501586e-32 6.3611093629270335e-15 2.4643964638336966 -4.73039719547299 -26.862066021628223 7.119431577828767 -14.666796277620918 43.71396377947867 9.939233379573489e-17 6.212020862233428e-18 -2.2301154895418012e-15 -1.8260385085389679 -13.206321744261729 6.4645223279986626 -3.4892261306277668 -6.621192982936117 -12.405578149412229 -4.482873583957193e-33 7.951386703658792e-16 6.460501696722769e-16
-1.5 9.5 45.79999923706055 -0.410715232449916 13.697172532946764 -1.4313483593792538 3.3998552424048053e-09 8.864437726143031e-07 -0.206352860921798 169.32794112374197 26.02443938030572 -143.72566830813014 -5.380221665246059e-07 9.525018702906112e-09 117.34210940495996 1.5902773407317584e-15 -4.4139062980501586e-32 -3.1805546814635168e-15 178.89774484972398 19.945544361894775 151.3549447765574 -5.01912155945596e-07 8.033619950529547e-07 -119.27837776144716 1.4908850069360235e-16 -8.276074308844047e-33 -6.3611093629270335e-15 2.6300366970709077 -3.1570678942344514 -29.699806491370808 7.816007648199549 -14.25136975184069 43.070631249926535 0.0 0.0 -5.404458150143086e-16 -1.4190534437414344 -11.641585819631924 8.466853297549939 -3.913921376320945 -6.3685001041464 -11.981417189510484 -7.516356550024379e-33 7.702905869169453e-16 1.1181637552020173e-15
-1.600000023841858 9.5 46.0 -0.8155432032453033 13.023116075145543 -1.2629942780244674 1.3301040615736733e-08 -1.6969253506277453e-06 0.6429665758239372 176.81022143613137 34.63632702165095 -146.19463592208655 -2.1870692833940696e-06 -5.231599838421056e-07 116.35582826200876 -1.5902773407317582e-15 0.0 0.0 171.0463702468703 26.15130489660456 157.77041310490128 7.185508840038662e-07 6.381955491042727e-07 -117.04068350139605 7.951386703658792e-16 0.0 0.0 2.987382464720283 -2.0280018536399353 -31.671829565853603 8.291063843391814 -14.231911898145965 42.763109952441646 9.93923337957349e-17 -7.951386703658792e-16 2.546928553515707e-16 -1.0604894327453807 -10.539798967678331 10.11149756081199 -4.150993030472664 -6.534371110849033 -12.371528993595799 -7.951386703658792e-16 -1.2069275033730902e-33 1.7393658414253607e-16
-1.600000023841858 9.600000381469727 46.39999771118164 -1.015776247029056 12.203851559668507 -0.5709550913208398 -4.287288029851496e-08 1.8296445374087944e-07 0.10574335728603142 -174.0508365567076 42.17669385244407 -151.7833325945761 -1.8134387143598921e-06 -3.781626063601613e-06 115.04637566053626 1.7655625192200634e-31 3.1805546814635168e-15 -6.3611093629270335e-15 163.06514432342234 31.24457988302837 164.11604740941286 7.294835211139487e-07 -2.2500413827386776e-06 -115.35034077805922 0.0 0.0 0.0 2.9988344886180203 -1.0644223122050889 -32.00064864434772 8.264332863435161 -14.130960970966226 42.356724000347306 1.987846675914698e-16 8.013506912281126e-16 1.863606258670029e-17 -0.9938929063452706 -9.289031844937366 10.6260026531408 -4.187788856899216 -6.6317094746595195 -12.509159332318081 0.0 0.0 4.969616689786745e-17
